<svg id="champagne" xmlns="http://www.w3.org/2000/svg" width="30.966" height="30.956" viewBox="0 0 30.966 30.956">
  <defs>
    <style>
      .cls-1 {
        fill: #5c5840;
      }
    </style>
  </defs>
  <path id="Path_386" data-name="Path 386" class="cls-1" d="M393.886,1.727l-.664-.665a2.719,2.719,0,0,0-4.357.707l-1.732,3.464,2.582,2.582,3.464-1.732a2.719,2.719,0,0,0,.707-4.357Zm-1.518,2.735L390.074,5.61l-.734-.734,1.147-2.295a.906.906,0,0,1,1.453-.236l.665.664a.906.906,0,0,1-.236,1.452Zm0,0" transform="translate(-363.719 -0.248)"/>
  <path id="Path_387" data-name="Path 387" class="cls-1" d="M5.473,134.869a3.125,3.125,0,0,0,4.421,0l1.3-1.3A29.979,29.979,0,0,0,18.4,121.912a4.551,4.551,0,0,1,1.093-1.77l4.746-4.716-3.848-3.848-4.744,4.714a4.556,4.556,0,0,1-1.772,1.1,29.979,29.979,0,0,0-11.659,7.205l-1.3,1.3a3.124,3.124,0,0,0,0,4.421Zm16.2-19.448L20.382,116.7,19.1,115.418l1.286-1.279Zm-7.221,3.687a6.374,6.374,0,0,0,2.479-1.531l.886-.881,1.283,1.283-.884.879a6.38,6.38,0,0,0-1.534,2.481,27.8,27.8,0,0,1-1.323,3.261H12.8a2.723,2.723,0,0,0-1.616-1.618v-2.55A27.823,27.823,0,0,1,14.447,119.108Zm-3.557,7.07a.907.907,0,1,1,0-1.283A.907.907,0,0,1,10.89,126.178Zm-8.691,1,1.3-1.3a28.093,28.093,0,0,1,5.875-4.489v1.574a2.722,2.722,0,1,0,3.451,3.452H14.4a28.1,28.1,0,0,1-4.489,5.875l-1.3,1.3a1.312,1.312,0,0,1-1.856,0L2.2,129.03a1.312,1.312,0,0,1,0-1.856Zm0,0" transform="translate(0 -104.83)"/>
  <path id="Path_388" data-name="Path 388" class="cls-1" d="M454.855,153.945H458.3v1.814h-3.446Zm0,0" transform="translate(-427.345 -144.634)"/>
  <path id="Path_389" data-name="Path 389" class="cls-1" d="M329.9,0h1.814V3.446H329.9Zm0,0" transform="translate(-309.946)"/>
  <path id="Path_390" data-name="Path 390" class="cls-1" d="M220.5,43.784l-1.283,1.283-2.456-2.456,1.283-1.283Zm0,0" transform="translate(-203.648 -38.829)"/>
  <path id="Path_391" data-name="Path 391" class="cls-1" d="M410.065,235.926l-2.456-2.456,1.283-1.283,2.456,2.456Zm0,0" transform="translate(-382.957 -218.145)"/>
  <path id="Path_392" data-name="Path 392" class="cls-1" d="M64.708,363.586l3.848,3.848-1.283,1.282-3.848-3.848Zm0,0" transform="translate(-59.59 -341.596)"/>
</svg>
