<svg xmlns="http://www.w3.org/2000/svg" width="26.545" height="26.553" viewBox="0 0 26.545 26.553">
  <defs>
    <style>
      .cls-1 {
        fill: #5c5840;
      }
    </style>
  </defs>
  <path id="cake" class="cls-1" d="M25.842,21.666h-.055V10.781a4.114,4.114,0,0,0-4.11-4.11H15.839C20.644,2.1,15.995-1.715,13.346.8c-2.648-2.517-7.3,1.3-2.491,5.87H5.017a4.114,4.114,0,0,0-4.11,4.11V21.666H.852a.778.778,0,0,0-.778.779,4.114,4.114,0,0,0,4.11,4.109H22.51a4.114,4.114,0,0,0,4.11-4.11.778.778,0,0,0-.778-.778ZM10.318,2.689a1.127,1.127,0,0,1,1.126-1.126,1.239,1.239,0,0,1,1.15.938.774.774,0,0,0,.753.6h0a.773.773,0,0,0,.753-.6,1.234,1.234,0,0,1,1.149-.936,1.127,1.127,0,0,1,1.126,1.126c0,1.546-1.972,3.384-3.029,3.94-1.009-.531-3.029-2.363-3.029-3.94ZM2.462,10.781A2.557,2.557,0,0,1,5.017,8.227h16.66a2.557,2.557,0,0,1,2.554,2.554v5.1a.888.888,0,0,1-1.777,0V12.447a2.444,2.444,0,0,0-4.887,0v1.666a.888.888,0,0,1-1.777,0V12.447a2.444,2.444,0,0,0-4.887,0,.888.888,0,1,1-1.777,0,2.444,2.444,0,0,0-4.887,0v5a.888.888,0,0,1-1.777,0V10.781Zm0,8.938a2.45,2.45,0,0,0,3.332-2.274v-5a.888.888,0,1,1,1.777,0,2.444,2.444,0,1,0,4.887,0,.888.888,0,0,1,1.777,0v1.666a2.444,2.444,0,0,0,4.887,0V12.447a.888.888,0,0,1,1.777,0v3.436a2.45,2.45,0,0,0,3.332,2.274v3.508H2.462ZM22.51,25H4.184A2.559,2.559,0,0,1,1.75,23.221H24.943A2.559,2.559,0,0,1,22.51,25Z" transform="translate(-0.074 0)"/>
</svg>
