<svg xmlns="http://www.w3.org/2000/svg" width="13.232" height="16.286" viewBox="0 0 13.232 16.286">
  <defs>
    <style>
      .cls-1 {
        fill: #5c5840;
      }
    </style>
  </defs>
  <g id="trash" transform="translate(-48)">
    <path id="Path_378" data-name="Path 378" class="cls-1" d="M59.96,2.036h-2.8V1.527A1.529,1.529,0,0,0,55.634,0H53.6a1.529,1.529,0,0,0-1.527,1.527v.509h-2.8A1.274,1.274,0,0,0,48,3.308V5.089a.509.509,0,0,0,.509.509h.278l.44,9.233a1.525,1.525,0,0,0,1.525,1.454H58.48a1.525,1.525,0,0,0,1.525-1.454l.44-9.233h.278a.509.509,0,0,0,.509-.509V3.308A1.274,1.274,0,0,0,59.96,2.036Zm-6.871-.509a.51.51,0,0,1,.509-.509h2.036a.51.51,0,0,1,.509.509v.509H53.089ZM49.018,3.308a.255.255,0,0,1,.254-.254H59.96a.255.255,0,0,1,.254.254V4.58h-11.2Zm9.971,11.475a.508.508,0,0,1-.508.485H50.752a.508.508,0,0,1-.508-.485L49.806,5.6h9.62Z"/>
    <path id="Path_379" data-name="Path 379" class="cls-1" d="M240.509,215.634a.509.509,0,0,0,.509-.509v-6.616a.509.509,0,1,0-1.018,0v6.616A.509.509,0,0,0,240.509,215.634Z" transform="translate(-185.893 -201.384)"/>
    <path id="Path_380" data-name="Path 380" class="cls-1" d="M320.509,215.634a.509.509,0,0,0,.509-.509v-6.616a.509.509,0,0,0-1.018,0v6.616A.509.509,0,0,0,320.509,215.634Z" transform="translate(-263.348 -201.384)"/>
    <path id="Path_381" data-name="Path 381" class="cls-1" d="M160.509,215.634a.509.509,0,0,0,.509-.509v-6.616a.509.509,0,0,0-1.018,0v6.616A.509.509,0,0,0,160.509,215.634Z" transform="translate(-108.437 -201.384)"/>
  </g>
</svg>
